# xmcd
#
# Track frame offsets: 
#        150
#        27026
#        54081
#        75818
#        106236
#        132093
#        164734
#        201951
#        238650
#
# Disc length: 3549 seconds
#
# Revision: 0
# Processed by: cddbd v1.5.2PL0 Copyright (c) Steve Scherf et al.
# Submitted via: ExactAudioCopy v1.2
#
DISCID=650ddb09
DTITLE="Sir" Oliver Mally and Peter Schneider - Folk Blues Adventures
DYEAR=2018
DGENRE=Blues
TTITLE0=21st Century Blues
TTITLE1=I Can'T Wait to See My Baby
TTITLE2=Brave Enough
TTITLE3=No One Can Forgive Me but My Baby
TTITLE4=Last Summer Pissed Me Off
TTITLE5=Drivin'Blues
TTITLE6=Blind Willie McTell
TTITLE7=Turn the Ship Around
TTITLE8=Learning to Fly
EXTD=
EXTT0=
EXTT1=
EXTT2=
EXTT3=
EXTT4=
EXTT5=
EXTT6=
EXTT7=
EXTT8=
PLAYORDER=
